<?xml version="1.0" standalone="no"?>
<!DOCTYPE svg PUBLIC "-//W3C//DTD SVG 20010904//EN"
 "http://www.w3.org/TR/2001/REC-SVG-20010904/DTD/svg10.dtd">
<svg version="1.0" xmlns="http://www.w3.org/2000/svg"
 width="1280.000000pt" height="1280.000000pt" viewBox="0 0 1280.000000 1280.000000"
 preserveAspectRatio="xMidYMid meet">
<metadata>
Created by potrace 1.15, written by Peter Selinger 2001-2017
</metadata>
<g transform="translate(0.000000,1280.000000) scale(0.100000,-0.100000)"
fill="#000000" stroke="none">
<path d="M1690 10370 l0 -830 -845 0 -845 0 0 -3027 c0 -1952 4 -3088 10
-3198 69 -1135 502 -1636 1475 -1705 198 -14 10041 -14 10155 0 177 22 381 93
518 181 320 206 521 502 614 907 l23 97 2 4203 3 4202 -5555 0 -5555 0 0 -830z
m10300 -3717 l3 -3738 -23 -70 c-59 -187 -182 -339 -330 -409 l-45 -21 -4677
-3 -4677 -2 31 67 c69 151 130 348 163 521 53 276 49 3 52 3837 2 1947 5 3545
7 3550 2 7 1592 9 4749 8 l4745 -3 2 -3737z m-10300 -525 c0 -2606 -2 -2780
-36 -3006 -50 -338 -161 -552 -317 -610 -270 -101 -462 191 -517 783 -6 71
-10 1044 -10 2773 l0 2662 440 0 440 0 0 -2602z"/>
<path d="M4390 8660 l0 -280 2825 0 2825 0 0 280 0 280 -2825 0 -2825 0 0
-280z"/>
<path d="M3870 7210 l0 -150 1175 0 1175 0 0 150 0 150 -1175 0 -1175 0 0
-150z"/>
<path d="M7072 5918 l3 -1443 1805 0 1805 0 3 1443 2 1442 -1810 0 -1810 0 2
-1442z"/>
<path d="M3870 6208 l0 -153 1175 0 1175 0 0 153 0 152 -1175 0 -1175 0 0
-152z"/>
<path d="M3865 5240 l0 -150 1178 0 1177 0 0 150 0 150 -1177 0 -1178 0 0
-150z"/>
<path d="M3870 4305 l0 -155 1175 0 1175 0 0 155 0 155 -1175 0 -1175 0 0
-155z"/>
</g>
</svg>
